# xmcd
#
# Track frame offsets:
#	150
#	19377
#	30263
#	50715
#	62257
#	79565
#	96236
#	110500
#	127034
#	137065
#	151811
#	164107
#	178142
#	192154
#	203282
#	218601
#	236846
#	252511
#	275427
#	288576
#	303100
#
# Disc length: 4380 seconds
#
# Revision: 0
# Processed by: cddbd v1.5.2PL0 Copyright (c) Steve Scherf et al.
# Submitted via: EasyCDDAExtractor 16.0.6.1
#
DISCID=28111a15
DTITLE=Τσιτσάνης Βασίλης - Το χάραμα-Τραγ. και ταξίμια του Β. Τσιτσάνη
DYEAR=1980
DGENRE=Ρεμπέτικη
TTITLE0=Τσιτσάνης Βασίλης-Γεράνη Ελένη - Συννεφιασμένη Κυριακή [Β. Τσιτσάνη]
TTITLE1=Τσιτσάνης Βασίλης - Να γιατί γυρνώ [Β. Τσιτσάνη]
TTITLE2=Τσιτσάνης Βασίλης-Γεράνη Ελένη - Μπαξέ τσιφλίκι [Β. Τσιτσάνη]
TTITLE3=Τσιτσάνης Βασίλης-Γεράνη Ελένη - Πήρα τη στράτα κι έρχομαι [Β. Τσιτσάν
TTITLE3=η]
TTITLE4=Τσιτσάνης Βασίλης-Γεράνη Ελένη - Παίξε Χρήστο το μπουζούκι [Β. Τσιτσάν
TTITLE4=η]
TTITLE5=Άνευ ερμηνευτού - Σόλο σε ρυθμό 5 όγδοα λα μινόρε [Β. Τσιτσάνη, σόλο μ
TTITLE5=πουζ. ιδίου]
TTITLE6=Τσιτσάνης Βασίλης-Γεράνη Ελένη - Μη μού ξαναφύγεις πια [Β. Τσιτσάνη]
TTITLE7=Τσιτσάνης Βασίλης-Γεράνη Ελένη - Όταν πίνεις στην ταβέρνα [Β. Τσιτσάνη
TTITLE7=]
TTITLE8=Τσιτσάνης Βασίλης-Γεράνη Ελένη - Πέφτεις σε λάθη [Β. Τσιτσάνη]
TTITLE9=Τσιτσάνης Βασίλης-Γεράνη Ελένη - Το παράπονο του ξενιτεμένου (Σαν απόκ
TTITLE9=ληρος γυρίζω)[Β. Τσιτσάνη]
TTITLE10=Τσιτσάνης Βασίλης-Γεράνη Ελένη - Το γράμμα [Β. Τσιτσάνη]
TTITLE11=Άνευ ερμηνευτού - Ταξίμι μινόρε [Β. Τσιτσάνη, σόλο μπουζ. ιδίου]
TTITLE12=Άνευ ερμηνευτού - Ταξίμι πειραιώτικο [Β. Τσιτσάνη, σόλο μπουζ. ιδίου]
TTITLE13=Τσιτσάνης Βασίλης - Ο Σακαφλιάς [Β. Τσιτσάνη]
TTITLE14=Τσιτσάνης Βασίλης-Γεράνη Ελένη - Δεν ξαναπιάνω γκόμενα (Η σουπιά) [Β.
TTITLE14=Τσιτσάνη]
TTITLE15=Τσιτσάνης Βασίλης-Γεράνη Ελένη - Τρελλή που θέλεις να με στεφανώσεις 
TTITLE15=[Β. Τσιτσάνη]
TTITLE16=Τσιτσάνης Βασίλης-Γεράνη Ελένη - Σε μάζεψα σε σύμμασα [Β. Τσιτσάνη]
TTITLE17=Άνευ ερμηνευτού - Ταξίμι χετζάς, πειραιώτικο αλέγκρο 9 όγδοα[Β.Τσιτσά
TTITLE17=νη, σόλο μπ. ιδίου]
TTITLE18=Τσιτσάνης Βασίλης-Γεράνη Ελένη - Τα λερωμένα τ' άπλυτα [Β. Τσιτσάνη]
TTITLE19=Τσιτσάνης Βασίλης - Τη μοίρα μου την είδα [Β. Τσιτσάνη]
TTITLE20=Άνευ ερμηνευτού - Το μινόρε του Τσιτσάνη [Β. Τσιτσάνη, σόλο μπουζ. ιδ
TTITLE20=ίου]
EXTD=
EXTT0=
EXTT1=
EXTT2=
EXTT3=
EXTT4=
EXTT5=
EXTT6=
EXTT7=
EXTT8=
EXTT9=
EXTT10=
EXTT11=
EXTT12=
EXTT13=
EXTT14=
EXTT15=
EXTT16=
EXTT17=
EXTT18=
EXTT19=
EXTT20=
PLAYORDER=
